<svg id="Layer_1" data-name="Layer 1" xmlns="http://www.w3.org/2000/svg" xmlns:xlink="http://www.w3.org/1999/xlink" viewBox="0 0 1920 1080"><defs><style>.cls-1{fill:#cbcbcb;}.cls-2{fill:gray;}.cls-3{fill:#b2b2b2;}.cls-4{fill:#989898;}.cls-5{fill:url(#linear-gradient);}.cls-6{fill:#e6ff47;}.cls-7{fill:#78ff85;}.cls-8{fill:#eaeaea;}.cls-9{fill:#fbfbfb;}.cls-10{fill:#d5d5d5;}.cls-11{fill:#fff;}.cls-12{fill:#666;}.cls-13,.cls-15{fill:#b48f70;}.cls-14{fill:#95775b;}.cls-15{stroke:#000;stroke-miterlimit:10;}</style><linearGradient id="linear-gradient" x1="1257.72" y1="142.84" x2="1263.24" y2="519.97" gradientUnits="userSpaceOnUse"><stop offset="0" stop-color="#fff"/><stop offset="0.94" stop-color="aqua"/></linearGradient></defs><rect class="cls-1" width="1920" height="1080"/><rect class="cls-2" y="943" width="1920" height="137"/><rect class="cls-3" x="55" y="40" width="92" height="92" rx="28.55"/><rect class="cls-4" x="64" y="49" width="74" height="74" rx="28.55"/><rect class="cls-3" x="287" y="40" width="92" height="92" rx="28.55"/><rect class="cls-4" x="296" y="49" width="74" height="74" rx="28.55"/><rect class="cls-3" x="401" y="40" width="92" height="92" rx="28.55"/><rect class="cls-4" x="410" y="49" width="74" height="74" rx="28.55"/><rect class="cls-3" x="170" y="40" width="92" height="92" rx="28.55"/><rect class="cls-4" x="179" y="49" width="74" height="74" rx="28.55"/><rect class="cls-3" x="55" y="155" width="92" height="92" rx="28.55"/><rect class="cls-4" x="64" y="164" width="74" height="74" rx="28.55"/><rect class="cls-3" x="287" y="155" width="92" height="92" rx="28.55"/><rect class="cls-4" x="296" y="164" width="74" height="74" rx="28.55"/><rect class="cls-3" x="401" y="155" width="92" height="92" rx="28.55"/><rect class="cls-4" x="410" y="164" width="74" height="74" rx="28.55"/><rect class="cls-3" x="170" y="155" width="92" height="92" rx="28.55"/><rect class="cls-4" x="179" y="164" width="74" height="74" rx="28.55"/><rect class="cls-3" x="55" y="272" width="92" height="92" rx="28.55"/><rect class="cls-4" x="64" y="281" width="74" height="74" rx="28.55"/><rect class="cls-3" x="287" y="272" width="92" height="92" rx="28.55"/><rect class="cls-4" x="296" y="281" width="74" height="74" rx="28.55"/><rect class="cls-3" x="401" y="272" width="92" height="92" rx="28.55"/><rect class="cls-4" x="410" y="281" width="74" height="74" rx="28.55"/><rect class="cls-3" x="170" y="272" width="92" height="92" rx="28.55"/><rect class="cls-4" x="179" y="281" width="74" height="74" rx="28.55"/><rect class="cls-3" x="55" y="387" width="92" height="92" rx="28.55"/><rect class="cls-4" x="64" y="396" width="74" height="74" rx="28.55"/><rect class="cls-3" x="287" y="387" width="92" height="92" rx="28.55"/><rect class="cls-4" x="296" y="396" width="74" height="74" rx="28.55"/><rect class="cls-3" x="401" y="387" width="92" height="92" rx="28.55"/><rect class="cls-4" x="410" y="396" width="74" height="74" rx="28.55"/><rect class="cls-3" x="170" y="387" width="92" height="92" rx="28.55"/><rect class="cls-4" x="179" y="396" width="74" height="74" rx="28.55"/><rect class="cls-3" x="55" y="500" width="92" height="92" rx="28.55"/><rect class="cls-4" x="64" y="509" width="74" height="74" rx="28.55"/><rect class="cls-3" x="287" y="500" width="92" height="92" rx="28.55"/><rect class="cls-4" x="296" y="509" width="74" height="74" rx="28.55"/><rect class="cls-3" x="401" y="500" width="92" height="92" rx="28.55"/><rect class="cls-4" x="410" y="509" width="74" height="74" rx="28.55"/><rect class="cls-3" x="170" y="500" width="92" height="92" rx="28.55"/><rect class="cls-4" x="179" y="509" width="74" height="74" rx="28.55"/><rect class="cls-3" x="55" y="615" width="92" height="92" rx="28.55"/><rect class="cls-4" x="64" y="624" width="74" height="74" rx="28.55"/><rect class="cls-3" x="287" y="615" width="92" height="92" rx="28.55"/><rect class="cls-4" x="296" y="624" width="74" height="74" rx="28.55"/><rect class="cls-3" x="401" y="615" width="92" height="92" rx="28.55"/><rect class="cls-4" x="410" y="624" width="74" height="74" rx="28.55"/><rect class="cls-3" x="170" y="615" width="92" height="92" rx="28.55"/><rect class="cls-4" x="179" y="624" width="74" height="74" rx="28.55"/><rect class="cls-3" x="55" y="732" width="92" height="92" rx="28.55"/><rect class="cls-4" x="64" y="741" width="74" height="74" rx="28.55"/><rect class="cls-3" x="287" y="732" width="92" height="92" rx="28.55"/><rect class="cls-4" x="296" y="741" width="74" height="74" rx="28.55"/><rect class="cls-3" x="401" y="732" width="92" height="92" rx="28.55"/><rect class="cls-4" x="410" y="741" width="74" height="74" rx="28.55"/><rect class="cls-3" x="170" y="732" width="92" height="92" rx="28.55"/><rect class="cls-4" x="179" y="741" width="74" height="74" rx="28.55"/><rect class="cls-3" x="524" y="41" width="92" height="92" rx="28.55"/><rect class="cls-4" x="533" y="50" width="74" height="74" rx="28.55"/><rect class="cls-3" x="756" y="41" width="92" height="92" rx="28.55"/><rect class="cls-4" x="765" y="50" width="74" height="74" rx="28.55"/><rect class="cls-3" x="870" y="41" width="92" height="92" rx="28.55"/><rect class="cls-4" x="879" y="50" width="74" height="74" rx="28.55"/><rect class="cls-3" x="639" y="41" width="92" height="92" rx="28.55"/><rect class="cls-4" x="648" y="50" width="74" height="74" rx="28.55"/><rect class="cls-3" x="524" y="156" width="92" height="92" rx="28.55"/><rect class="cls-4" x="533" y="165" width="74" height="74" rx="28.55"/><rect class="cls-3" x="756" y="156" width="92" height="92" rx="28.55"/><rect class="cls-4" x="765" y="165" width="74" height="74" rx="28.55"/><rect class="cls-3" x="870" y="156" width="92" height="92" rx="28.55"/><rect class="cls-4" x="879" y="165" width="74" height="74" rx="28.55"/><rect class="cls-3" x="639" y="156" width="92" height="92" rx="28.55"/><rect class="cls-4" x="648" y="165" width="74" height="74" rx="28.55"/><rect class="cls-3" x="524" y="273" width="92" height="92" rx="28.55"/><rect class="cls-4" x="533" y="282" width="74" height="74" rx="28.55"/><rect class="cls-3" x="756" y="273" width="92" height="92" rx="28.55"/><rect class="cls-4" x="765" y="282" width="74" height="74" rx="28.55"/><rect class="cls-3" x="870" y="273" width="92" height="92" rx="28.55"/><rect class="cls-4" x="879" y="282" width="74" height="74" rx="28.55"/><rect class="cls-3" x="639" y="273" width="92" height="92" rx="28.55"/><rect class="cls-4" x="648" y="282" width="74" height="74" rx="28.55"/><rect class="cls-3" x="524" y="388" width="92" height="92" rx="28.55"/><rect class="cls-4" x="533" y="397" width="74" height="74" rx="28.55"/><rect class="cls-3" x="756" y="388" width="92" height="92" rx="28.55"/><rect class="cls-4" x="765" y="397" width="74" height="74" rx="28.55"/><rect class="cls-3" x="870" y="388" width="92" height="92" rx="28.55"/><rect class="cls-4" x="879" y="397" width="74" height="74" rx="28.55"/><rect class="cls-3" x="639" y="388" width="92" height="92" rx="28.55"/><rect class="cls-4" x="648" y="397" width="74" height="74" rx="28.55"/><rect class="cls-3" x="524" y="501" width="92" height="92" rx="28.55"/><rect class="cls-4" x="533" y="510" width="74" height="74" rx="28.55"/><rect class="cls-3" x="756" y="501" width="92" height="92" rx="28.55"/><rect class="cls-4" x="765" y="510" width="74" height="74" rx="28.55"/><rect class="cls-3" x="870" y="501" width="92" height="92" rx="28.55"/><rect class="cls-4" x="879" y="510" width="74" height="74" rx="28.55"/><rect class="cls-3" x="639" y="501" width="92" height="92" rx="28.55"/><rect class="cls-4" x="648" y="510" width="74" height="74" rx="28.55"/><rect class="cls-3" x="524" y="616" width="92" height="92" rx="28.55"/><rect class="cls-4" x="533" y="625" width="74" height="74" rx="28.55"/><rect class="cls-3" x="756" y="616" width="92" height="92" rx="28.55"/><rect class="cls-4" x="765" y="625" width="74" height="74" rx="28.55"/><rect class="cls-3" x="870" y="616" width="92" height="92" rx="28.55"/><rect class="cls-4" x="879" y="625" width="74" height="74" rx="28.55"/><rect class="cls-3" x="639" y="616" width="92" height="92" rx="28.55"/><rect class="cls-4" x="648" y="625" width="74" height="74" rx="28.55"/><rect class="cls-3" x="524" y="733" width="92" height="92" rx="28.55"/><rect class="cls-4" x="533" y="742" width="74" height="74" rx="28.55"/><rect class="cls-3" x="756" y="733" width="92" height="92" rx="28.55"/><rect class="cls-4" x="765" y="742" width="74" height="74" rx="28.55"/><rect class="cls-3" x="870" y="733" width="92" height="92" rx="28.55"/><rect class="cls-4" x="879" y="742" width="74" height="74" rx="28.55"/><rect class="cls-3" x="639" y="733" width="92" height="92" rx="28.55"/><rect class="cls-4" x="648" y="742" width="74" height="74" rx="28.55"/><rect class="cls-3" x="983" y="42" width="92" height="92" rx="28.55"/><rect class="cls-4" x="992" y="51" width="74" height="74" rx="28.55"/><rect class="cls-3" x="1215" y="42" width="92" height="92" rx="28.55"/><rect class="cls-4" x="1224" y="51" width="74" height="74" rx="28.55"/><rect class="cls-3" x="1329" y="42" width="92" height="92" rx="28.55"/><rect class="cls-4" x="1338" y="51" width="74" height="74" rx="28.55"/><rect class="cls-3" x="1098" y="42" width="92" height="92" rx="28.55"/><rect class="cls-4" x="1107" y="51" width="74" height="74" rx="28.55"/><rect class="cls-3" x="983" y="157" width="92" height="92" rx="28.55"/><rect class="cls-4" x="992" y="166" width="74" height="74" rx="28.55"/><rect class="cls-3" x="983" y="274" width="92" height="92" rx="28.55"/><rect class="cls-4" x="992" y="283" width="74" height="74" rx="28.55"/><rect class="cls-3" x="983" y="389" width="92" height="92" rx="28.55"/><rect class="cls-4" x="992" y="398" width="74" height="74" rx="28.55"/><rect class="cls-3" x="983" y="502" width="92" height="92" rx="28.55"/><rect class="cls-4" x="992" y="511" width="74" height="74" rx="28.55"/><rect class="cls-3" x="1215" y="502" width="92" height="92" rx="28.55"/><rect class="cls-4" x="1224" y="511" width="74" height="74" rx="28.55"/><rect class="cls-3" x="1329" y="502" width="92" height="92" rx="28.55"/><rect class="cls-4" x="1338" y="511" width="74" height="74" rx="28.55"/><rect class="cls-3" x="1098" y="502" width="92" height="92" rx="28.55"/><rect class="cls-4" x="1107" y="511" width="74" height="74" rx="28.55"/><rect class="cls-3" x="983" y="617" width="92" height="92" rx="28.55"/><rect class="cls-4" x="992" y="626" width="74" height="74" rx="28.55"/><rect class="cls-3" x="1215" y="617" width="92" height="92" rx="28.55"/><rect class="cls-4" x="1224" y="626" width="74" height="74" rx="28.55"/><rect class="cls-3" x="1329" y="617" width="92" height="92" rx="28.55"/><rect class="cls-4" x="1338" y="626" width="74" height="74" rx="28.55"/><rect class="cls-3" x="1098" y="617" width="92" height="92" rx="28.55"/><rect class="cls-4" x="1107" y="626" width="74" height="74" rx="28.55"/><rect class="cls-3" x="983" y="734" width="92" height="92" rx="28.55"/><rect class="cls-4" x="992" y="743" width="74" height="74" rx="28.55"/><rect class="cls-3" x="1215" y="734" width="92" height="92" rx="28.55"/><rect class="cls-4" x="1224" y="743" width="74" height="74" rx="28.55"/><rect class="cls-3" x="1329" y="734" width="92" height="92" rx="28.55"/><rect class="cls-4" x="1338" y="743" width="74" height="74" rx="28.55"/><rect class="cls-3" x="1098" y="734" width="92" height="92" rx="28.55"/><rect class="cls-4" x="1107" y="743" width="74" height="74" rx="28.55"/><rect class="cls-3" x="1447" y="43" width="92" height="92" rx="28.55"/><rect class="cls-4" x="1456" y="52" width="74" height="74" rx="28.55"/><rect class="cls-3" x="1679" y="43" width="92" height="92" rx="28.55"/><rect class="cls-4" x="1688" y="52" width="74" height="74" rx="28.55"/><rect class="cls-3" x="1793" y="43" width="92" height="92" rx="28.55"/><rect class="cls-4" x="1802" y="52" width="74" height="74" rx="28.55"/><rect class="cls-3" x="1562" y="43" width="92" height="92" rx="28.55"/><rect class="cls-4" x="1571" y="52" width="74" height="74" rx="28.55"/><rect class="cls-3" x="1447" y="158" width="92" height="92" rx="28.55"/><rect class="cls-4" x="1456" y="167" width="74" height="74" rx="28.55"/><rect class="cls-3" x="1679" y="158" width="92" height="92" rx="28.55"/><rect class="cls-4" x="1688" y="167" width="74" height="74" rx="28.55"/><rect class="cls-3" x="1793" y="158" width="92" height="92" rx="28.55"/><rect class="cls-4" x="1802" y="167" width="74" height="74" rx="28.55"/><rect class="cls-3" x="1562" y="158" width="92" height="92" rx="28.55"/><rect class="cls-4" x="1571" y="167" width="74" height="74" rx="28.55"/><rect class="cls-3" x="1447" y="275" width="92" height="92" rx="28.55"/><rect class="cls-4" x="1456" y="284" width="74" height="74" rx="28.55"/><rect class="cls-3" x="1679" y="275" width="92" height="92" rx="28.55"/><rect class="cls-4" x="1688" y="284" width="74" height="74" rx="28.55"/><rect class="cls-3" x="1793" y="275" width="92" height="92" rx="28.55"/><rect class="cls-4" x="1802" y="284" width="74" height="74" rx="28.55"/><rect class="cls-3" x="1562" y="275" width="92" height="92" rx="28.55"/><rect class="cls-4" x="1571" y="284" width="74" height="74" rx="28.55"/><rect class="cls-3" x="1447" y="390" width="92" height="92" rx="28.55"/><rect class="cls-4" x="1456" y="399" width="74" height="74" rx="28.55"/><rect class="cls-3" x="1679" y="390" width="92" height="92" rx="28.55"/><rect class="cls-4" x="1688" y="399" width="74" height="74" rx="28.55"/><rect class="cls-3" x="1793" y="390" width="92" height="92" rx="28.55"/><rect class="cls-4" x="1802" y="399" width="74" height="74" rx="28.55"/><rect class="cls-3" x="1562" y="390" width="92" height="92" rx="28.55"/><rect class="cls-4" x="1571" y="399" width="74" height="74" rx="28.55"/><rect class="cls-3" x="1447" y="503" width="92" height="92" rx="28.55"/><rect class="cls-4" x="1456" y="512" width="74" height="74" rx="28.55"/><rect class="cls-3" x="1679" y="503" width="92" height="92" rx="28.55"/><rect class="cls-4" x="1688" y="512" width="74" height="74" rx="28.55"/><rect class="cls-3" x="1793" y="503" width="92" height="92" rx="28.55"/><rect class="cls-4" x="1802" y="512" width="74" height="74" rx="28.55"/><rect class="cls-3" x="1562" y="503" width="92" height="92" rx="28.55"/><rect class="cls-4" x="1571" y="512" width="74" height="74" rx="28.55"/><rect class="cls-3" x="1447" y="618" width="92" height="92" rx="28.55"/><rect class="cls-4" x="1456" y="627" width="74" height="74" rx="28.55"/><rect class="cls-3" x="1679" y="618" width="92" height="92" rx="28.55"/><rect class="cls-4" x="1688" y="627" width="74" height="74" rx="28.55"/><rect class="cls-3" x="1793" y="618" width="92" height="92" rx="28.55"/><rect class="cls-4" x="1802" y="627" width="74" height="74" rx="28.55"/><rect class="cls-3" x="1562" y="618" width="92" height="92" rx="28.55"/><rect class="cls-4" x="1571" y="627" width="74" height="74" rx="28.55"/><rect class="cls-3" x="1447" y="735" width="92" height="92" rx="28.55"/><rect class="cls-4" x="1456" y="744" width="74" height="74" rx="28.55"/><rect class="cls-3" x="1679" y="735" width="92" height="92" rx="28.55"/><rect class="cls-4" x="1688" y="744" width="74" height="74" rx="28.55"/><rect class="cls-3" x="1793" y="735" width="92" height="92" rx="28.55"/><rect class="cls-4" x="1802" y="744" width="74" height="74" rx="28.55"/><rect class="cls-3" x="1562" y="735" width="92" height="92" rx="28.55"/><rect class="cls-4" x="1571" y="744" width="74" height="74" rx="28.55"/><rect class="cls-3" x="55" y="839" width="92" height="92" rx="28.55"/><rect class="cls-4" x="64" y="848" width="74" height="74" rx="28.55"/><rect class="cls-3" x="287" y="839" width="92" height="92" rx="28.55"/><rect class="cls-4" x="296" y="848" width="74" height="74" rx="28.55"/><rect class="cls-3" x="401" y="839" width="92" height="92" rx="28.55"/><rect class="cls-4" x="410" y="848" width="74" height="74" rx="28.55"/><rect class="cls-3" x="170" y="839" width="92" height="92" rx="28.55"/><rect class="cls-4" x="179" y="848" width="74" height="74" rx="28.55"/><rect class="cls-3" x="524" y="840" width="92" height="92" rx="28.55"/><rect class="cls-4" x="533" y="849" width="74" height="74" rx="28.55"/><rect class="cls-3" x="756" y="840" width="92" height="92" rx="28.55"/><rect class="cls-4" x="765" y="849" width="74" height="74" rx="28.55"/><rect class="cls-3" x="870" y="840" width="92" height="92" rx="28.55"/><rect class="cls-4" x="879" y="849" width="74" height="74" rx="28.55"/><rect class="cls-3" x="639" y="840" width="92" height="92" rx="28.55"/><rect class="cls-4" x="648" y="849" width="74" height="74" rx="28.55"/><rect class="cls-3" x="983" y="841" width="92" height="92" rx="28.55"/><rect class="cls-4" x="992" y="850" width="74" height="74" rx="28.55"/><rect class="cls-3" x="1215" y="841" width="92" height="92" rx="28.55"/><rect class="cls-4" x="1224" y="850" width="74" height="74" rx="28.55"/><rect class="cls-3" x="1329" y="841" width="92" height="92" rx="28.55"/><rect class="cls-4" x="1338" y="850" width="74" height="74" rx="28.55"/><rect class="cls-3" x="1098" y="841" width="92" height="92" rx="28.55"/><rect class="cls-4" x="1107" y="850" width="74" height="74" rx="28.55"/><rect class="cls-3" x="1447" y="842" width="92" height="92" rx="28.55"/><rect class="cls-4" x="1456" y="851" width="74" height="74" rx="28.55"/><rect class="cls-3" x="1679" y="842" width="92" height="92" rx="28.55"/><rect class="cls-4" x="1688" y="851" width="74" height="74" rx="28.55"/><rect class="cls-3" x="1793" y="842" width="92" height="92" rx="28.55"/><rect class="cls-4" x="1802" y="851" width="74" height="74" rx="28.55"/><rect class="cls-3" x="1562" y="842" width="92" height="92" rx="28.55"/><rect class="cls-4" x="1571" y="851" width="74" height="74" rx="28.55"/><path class="cls-5" d="M1421.17,246.44V441.68c0,.48,0,1,0,1.43a30,30,0,0,1-30,28.56h-261a30,30,0,0,1-30-30V196.88a30,30,0,0,1,30-30h220a54,54,0,0,0,71,79.55Z"/><path class="cls-6" d="M1421.17,196.88v49.56a54,54,0,0,1-71-79.55h41A30,30,0,0,1,1421.17,196.88Z"/><path class="cls-7" d="M1177,457a33.07,33.07,0,0,1-3.44,14.67h-43.4a30,30,0,0,1-30-30V430.89A48.27,48.27,0,0,1,1132.5,419c14,0,26.5,5.52,34.65,14.16A34.57,34.57,0,0,1,1177,457Z"/><path class="cls-7" d="M1228,462.5a37.39,37.39,0,0,1-1.13,9.17h-72.74a37.5,37.5,0,0,1,66.76-31.14h0A37.29,37.29,0,0,1,1228,462.5Z"/><path class="cls-7" d="M1292,471c0,.22,0,.45,0,.67h-89c0-.22,0-.45,0-.67,0-12.47,7-23.54,17.89-30.46h0a50.62,50.62,0,0,1,55.26,1.39C1285.84,448.89,1292,459.33,1292,471Z"/><path class="cls-7" d="M1345,462.5a37.39,37.39,0,0,1-1.13,9.17h-72.74A37.51,37.51,0,1,1,1345,462.5Z"/><path class="cls-7" d="M1421.13,443.11a30,30,0,0,1-30,28.56h-51.73A32.82,32.82,0,0,1,1338,462a33.16,33.16,0,0,1,3.63-15.06c6.83-13.49,22.55-22.94,40.87-22.94C1399,424,1413.45,431.69,1421.13,443.11Z"/><g id="Toilet"><rect class="cls-8" x="51.86" y="512" width="87.21" height="249.86" rx="6.23"/><rect class="cls-9" x="49.5" y="758.32" width="266.36" height="232.18" rx="8.32"/><path class="cls-8" d="M373.61,753.61c-24.56.28-48.47,0-73.07,0-26.64-.06-65.3,0-91.93,0-25.78,0-47.29-2.56-73.07-2.36-4.34,0-.5,2.73-2.36,0a47.67,47.67,0,0,0-2.36,16.5v56.57a73.07,73.07,0,0,0,73.07,73.07H371.25a73.06,73.06,0,0,0,73.07-73.07V767.75a73.41,73.41,0,0,0-2.23-18C419,753,397,753.34,373.61,753.61Z"/><path class="cls-9" d="M139.75,761.86a6.62,6.62,0,0,1-6.57-6.67v-7.88a6.62,6.62,0,0,1,6.57-6.67H440.11a6.62,6.62,0,0,1,6.57,6.67v7.88a6.62,6.62,0,0,1-6.57,6.67H139.75"/><rect class="cls-9" x="57.75" y="528.09" width="75.43" height="216.09" rx="6.23"/></g><g id="Håndvask"><path class="cls-10" d="M1223.69,766.46s9.5,139.57-4.39,182.25c-4.14,12.7-7.46,17.83-12.56,23-6.41,6.5-11,6.26-8.3,13.22,1.55,4,6.67,7.13,61.48,8.79,59.41,1.8,68.64-1.47,70.26-6.59,1.71-5.38-5.29-11.78-8.78-15.37-24.9-25.57-25-71.56-24.15-162.49.48-52.54,4.49-74.76,19.76-83.44,4.64-2.64,6.64-1.93,15.37-4.39,22.91-6.45,44.36-21.24,57.09-37.33,21.71-27.44,30-73.88,11-92.22-7.53-7.24-17-7.91-32.94-8.78-51.08-2.82-76.62-4.23-101-4.4-42.47-.28-84.89,5.53-127.35,4.4a27.24,27.24,0,0,0-16.47,5.49c-26,19-11.47,100.86,28.55,120.76,22.59,11.24,44.66-.2,61.48,15.37C1223.65,734.88,1222.37,747.1,1223.69,766.46Z"/><ellipse class="cls-11" cx="1257.72" cy="589.7" rx="140.53" ry="10.98"/><path class="cls-11" d="M1135.81,604.6c-10.27,8.86.31,38.82,12.06,56.85,3,4.65,21.6,32.19,56.86,39.63,13.31,2.81,21.66,4.57,25.84,0,10.31-11.27-44-34-46.52-37.9-21-32.23-20.67-39.63-25.84-48.24C1152.79,605.91,1141.5,599.69,1135.81,604.6Z"/><path class="cls-12" d="M1235.76,580.92c-2-4.66,2.66-11.2,0-13.17-1.66-1.24-3.8,1.08-6.58,0-3.75-1.47-5.77-8-4.4-13.18,1.07-4.06,4.66-9.15,8.79-8.78s6.44,6.2,6.59,6.58c2,5.12-.13,9.75,2.19,11a2.12,2.12,0,0,0,2.2,0c.55-.55.12-1.8,0-2.19-.89-2.81,0-6.15,0-11,0-12.54-6-26.21,0-35.13,3.09-4.58,9.69-8.4,13.17-6.59,8.78,4.56-6.51,46.4,2.2,50.5.88.42,3.32,1.07,4.39,0,1.26-1.26-.68-3.65,0-6.59.78-3.4,4.79-6.19,8.78-6.58,5.14-.51,10.46,2.92,11,6.58.68,4.79-7.33,6.16-11,15.38-2.65,6.7.33,9.14-2.19,13.17C1264.82,590.63,1239.47,589.33,1235.76,580.92Z"/></g><g id="Toilet_holder" data-name="Toilet holder"><path class="cls-2" d="M608.66,611.13a18.36,18.36,0,0,1-8.7,2,36.38,36.38,0,0,0-.63-4.07,9.7,9.7,0,0,0,6.28-1.36c4.12-2.74,4.15-8.34,8.13-9.14,1.31-.27,3.12,0,3.73,1C618.82,601.92,614.23,608.18,608.66,611.13Z"/><path class="cls-12" d="M592.5,608a31.66,31.66,0,0,0-.83,4.63c-16-1.44-40.73-3.45-52.81-.12a10.75,10.75,0,0,1-4.74.34c-5.65-1-10.32-6.94-11.52-12.88-.35-1.71,0-1.54,0-7.11,0-10.52-1.1-11.26-.34-14.57a18.88,18.88,0,0,1,11.86-12.88c8.3-2.7,16.35,3,19-.68.48-.66-.17-1.89.68-2.71s1.7-.38,2.37-.67c1.14-.5,1.81-2.93.68-10.17a13.19,13.19,0,0,1,4.4-8.47c5.06-4.14,13.28-3.43,16.94.68a10.82,10.82,0,0,1,2.38,5.42c1,5.42-1.95,10,0,11.52.75.6,1.77.37,2.37,1.36s-.08,1.7.34,2.37c1,1.66,6.27-1.1,7.79.67.83,1,.48,3.18-.68,4.07-2,1.55-5.8-1.42-7.11,0-.8.85.32,2.21-.34,3.39-1,1.83-5,.88-9.49.68-10.19-.46-15.11,3.38-18,.33-1.39-1.49-.69-2.93-2.37-4.06-1.92-1.3-3.78,0-8.13.34-5.8.48-6.46-1.46-10.16-.34-.59.18-4.95,1.56-6.78,5.42-1.19,2.51-.18,3.68,0,10.16.13,4.61-.37,4.52-.34,10.51s.07,8.85,1.36,10.5c2.59,3.34,8.24,2.91,11.52,2.71C560.49,607.18,579.29,606,592.5,608Z"/><path class="cls-13" d="M542.08,603c-2,1-2.25,4.21-2.37,11.86-.21,13.74.34,15.76,2,16.94.88.61,1.64.71,6.44.68,6.77-.05,11.73-.28,13.89-.34,8.27-.25,6.75,1,14.57.68,8.42-.32,11.7-1.79,15.25-.34a8.41,8.41,0,0,0,4.57,0c1.09-.42,1-1,1.52-2,1.55-2.89,1.41-6,1.36-9.82,0-2.59-.07-9.71-1.36-14.91a4,4,0,0,0-1.69-2.71c-.85-.46-1.67-.18-3,0h-39.3c-2.49,0-5,.12-7.45,0C543.27,602.84,542.85,602.61,542.08,603Z"/><path class="cls-2" d="M600,613.17c-2,0-4-.17-5.87-.34l-2.42-.22a31.66,31.66,0,0,1,.83-4.63c.89.13,1.76.28,2.6.44a37.55,37.55,0,0,0,4.23.68A36.38,36.38,0,0,1,600,613.17Z"/><path class="cls-14" d="M595.1,608.42c-.84-.16-1.71-.31-2.6-.44.8-3.06,2-5,3.28-5,1.46,0,2.76,2.4,3.55,6.1A37.55,37.55,0,0,1,595.1,608.42Z"/><path class="cls-14" d="M600.19,617.91c0,8.23-2,14.91-4.41,14.91s-4.4-6.68-4.4-14.91a46.55,46.55,0,0,1,.29-5.3l2.42.22c1.91.17,3.87.36,5.87.34C600.11,614.66,600.19,616.25,600.19,617.91Z"/><path class="cls-13" d="M568.34,608.42q3,5.25,6.1,10.5"/><path class="cls-15" d="M565.63,603a40.34,40.34,0,0,0,6.28,10.32c4.71,5.57,9.35,7.78,13.39,15A34.15,34.15,0,0,1,587,631.8"/><path class="cls-9" d="M551.92,608c.26,0,.34.5,1.06.8s1.28,0,1.59.26,0,1.28-.26,2.12c-.59,1.83-1.28,4-.53,5.31s2.16.94,2.65,2.38c.23.7,0,1.24.53,1.86a2.38,2.38,0,0,0,1.32.79c2.24.64,6.13,4.15,8.22,6.63,1.55,1.83.67,1.39,3.45,5.31a22.29,22.29,0,0,1,2.92,5.3c.58,1.54.71,2.45.26,2.92s-1.08.34-1.85.26c-1.82-.17-2.23-1-3.45-.79-.81.12-.79.5-1.59.53-1,0-1.21-.56-2.12-.53-1.07,0-1.25.84-2.12.79s-1-1-2.13-1.59c-1.65-.84-3.07.5-4-.26-.74-.62-.22-1.86-.27-3.45-.08-2.74-1.79-4.17-3.18-6.36-2.14-3.4-2.38-6.81-2.65-10.61C549.35,613.34,551.06,608,551.92,608Z"/></g></svg>