<svg xmlns="http://www.w3.org/2000/svg" viewBox="0 0 1017.38 2767.68"><defs><style>.cls-1{fill:#f5ce9b;}.cls-2{fill:#e8c494;}.cls-3{fill:#1c174f;}.cls-4{fill:#7f6a3b;}.cls-5{fill:#debb8e;}.cls-6{fill:#d94490;}.cls-7{fill:#c04d94;}.cls-8{fill:#cb4891;}</style></defs><g id="Layer_2" data-name="Layer 2"><g id="Mand"><rect class="cls-1" x="73" y="990.03" width="118.72" height="477.18" rx="12" transform="translate(-152.56 26.19) rotate(-7.18)"/><ellipse class="cls-2" cx="174.5" cy="1462.1" rx="72.92" ry="60.19"/><path class="cls-1" d="M255.15,519.74H564.42a56,56,0,0,1,56,56V1693.49a12,12,0,0,1-12,12H211.15a12,12,0,0,1-12-12V575.74A56,56,0,0,1,255.15,519.74Z"/><rect class="cls-1" x="199.15" y="1577.45" width="118.72" height="1142.92" rx="12"/><rect class="cls-1" x="501.7" y="1577.45" width="118.72" height="1142.92" rx="12"/><rect class="cls-3" y="2639.82" width="317.87" height="80.55" rx="12"/><rect class="cls-3" x="501.7" y="2639.82" width="294.89" height="80.55" rx="12"/><ellipse class="cls-1" cx="315.87" cy="1604.93" rx="117.7" ry="158.69"/><ellipse class="cls-1" cx="503.69" cy="1614.17" rx="117.7" ry="158.69"/><rect class="cls-1" x="123.3" y="539.75" width="118.72" height="511.02" rx="12" transform="translate(276.46 -15.3) rotate(19.54)"/><rect class="cls-1" x="350.42" y="423.77" width="118.72" height="144.61" rx="12"/><rect class="cls-1" x="641.58" y="225.59" width="118.72" height="642.17" rx="12" transform="translate(455.1 1400.92) rotate(-111.9)"/><ellipse class="cls-1" cx="409.78" cy="236.2" rx="203.42" ry="236.2"/><path class="cls-4" d="M409.78,0C297.43,0,206.36,105.75,206.36,236.2c0,6.53.24,13,.68,19.38a89.13,89.13,0,0,1,32.83,20.22c27.35,26.16,42,64.22,51.46,100.73,19.08,6,36.28,18.31,55.59,24,18,5.27,38,9.45,57.53,9.15l8.93-1.41c6.94-1.1,13.88-2.13,20.82-3.19l.6-.19a4.91,4.91,0,0,1,2.19-.24c8.13-1.25,16.24-2.57,24.31-4.1,15.2-2.89,30.22-6.51,44.42-12.72,8.36-3.66,16.71-7.4,25.46-9.58,7.88-16.37,16.24-32.54,25.5-48.18,10.33-17.45,21.76-34.58,35.62-49.45a119.2,119.2,0,0,1,19.57-17.3c.87-8.89,1.34-17.92,1.34-27.09C613.21,105.75,522.13,0,409.78,0Z"/><path class="cls-5" d="M443.45,1745.78c-17.91-19.5-32.29-42.47-38.6-68.36-6.22-25.48-5.83-52.52-.05-78.05,5.84-25.82,17.21-51.14,37.17-69,5.64-5.06,11.77-9.59,17.35-14.72,4.9-4.5,9.4-9.46,14.09-14.18,2.62-2.65,5.31-5.25,8.09-7.74-51.18,6.86-91.14,65.07-91.14,135.87,0,57.36,26.24,106.46,63.42,126.67C450.23,1752.86,446.77,1749.4,443.45,1745.78Z"/><path class="cls-5" d="M403.31,1577.45q3.09-9.42,6.47-18.76c-15.85-37.47-44.48-63.84-77.89-68.32,2.78,2.49,5.47,5.09,8.09,7.73,4.69,4.73,9.19,9.68,14.09,14.19,5.58,5.13,11.7,9.66,17.35,14.72C386.53,1540.56,396.72,1558.38,403.31,1577.45Z"/><rect class="cls-3" x="99.57" y="2447.17" width="317.87" height="118.72" transform="translate(-2248.02 2765.04) rotate(-90)"/><rect class="cls-3" x="402.12" y="2447.17" width="317.87" height="118.72" transform="translate(-1945.47 3067.58) rotate(-90)"/><rect class="cls-6" x="199.15" y="2400.4" width="118.72" height="12.71"/><rect class="cls-6" x="501.7" y="2400.4" width="118.72" height="12.71"/><rect class="cls-6" x="501.7" y="2433.23" width="118.72" height="12.71"/><rect class="cls-6" x="199.15" y="2433.23" width="118.72" height="12.71"/><path class="cls-7" d="M750.11,2639.82h34.47a12,12,0,0,1,12,12v56.55a12,12,0,0,1-12,12H750.11a0,0,0,0,1,0,0v-80.55A0,0,0,0,1,750.11,2639.82Z"/><path class="cls-7" d="M12,2639.82H46.47a0,0,0,0,1,0,0v80.55a0,0,0,0,1,0,0H12a12,12,0,0,1-12-12v-56.55A12,12,0,0,1,12,2639.82Z"/><path class="cls-8" d="M354.76,2764.46c2.08,1.07,4.14,2.15,6.19,3.22A12,12,0,0,0,354.76,2764.46Z"/><path class="cls-8" d="M289.88,2657.31h-60a9.53,9.53,0,0,0-1.32.1c-.92,1.37-1.87,2.71-2.84,4.05-1.95,2.67-4,5.35-5.74,8.16V2705c2.64,4.91,5,9.95,7.36,15a10.11,10.11,0,0,0,2.54.34H308a9.93,9.93,0,0,0,9.9-9.9V2671C308.89,2666.37,299.61,2660.81,289.88,2657.31Z"/><path class="cls-8" d="M529.68,2657.31h60a9.65,9.65,0,0,1,1.32.1c.91,1.37,1.87,2.71,2.84,4.05,1.94,2.67,4,5.35,5.74,8.16V2705c-2.64,4.91-5,9.95-7.36,15a10.17,10.17,0,0,1-2.54.34H511.59a9.92,9.92,0,0,1-9.89-9.9V2671C510.67,2666.37,520,2660.81,529.68,2657.31Z"/></g></g></svg>