<svg xmlns="http://www.w3.org/2000/svg" viewBox="0 0 356 286.5"><defs><style>.cls-1{fill:#fcd1bf;}.cls-2{fill:none;stroke:#000;stroke-miterlimit:10;stroke-width:4px;}.cls-3{fill:#fff;}</style></defs><g id="Layer_2" data-name="Layer 2"><g id="Layer_1-2" data-name="Layer 1"><path class="cls-1" d="M356,153.5c0,72.35-49.92,131-111.5,131-23.18,0-44.7-8.31-62.54-22.53-1-.76-1.89-1.54-2.82-2.33-.89.81-1.79,1.59-2.7,2.35-18.29,15.43-40.71,24.51-64.94,24.51C49.92,286.5,0,227.85,0,155.5a150.19,150.19,0,0,1,9.91-54.07,0,0,0,0,1,0,0C27.58,43.31,96.13,0,178,0c74,0,137.16,35.41,161.63,85.15A147.68,147.68,0,0,1,356,153.5Z"/><path class="cls-2" d="M205,32.5a108.13,108.13,0,0,0-18,10c-42.39,29.25-51.29,80.86-53,93.21-9.47,68.21,36.45,118.35,43,125.27"/><path class="cls-2" d="M144.5,32.93A74.08,74.08,0,0,1,177.5,51"/><path class="cls-3" d="M284.25,44.11c14.88,9.53,21.64,25.55,15.08,35.78S291.1,71,276.22,61.49s-37.33-5.88-30.78-16.11S269.37,34.58,284.25,44.11Z"/><path class="cls-3" d="M323.05,106.05c2.57,6-1.29,13.5-8.63,16.62s-9.14-1.89-11.71-8-5-10.88,2.38-14S320.47,100,323.05,106.05Z"/></g></g></svg>