<svg id="Layer_1" data-name="Layer 1" xmlns="http://www.w3.org/2000/svg" viewBox="0 0 324 384"><defs><style>.cls-1{fill:#f2cb3f;}.cls-2{fill:#b2b27b;}.cls-3{fill:#f2cb00;}.cls-4{fill:#a0a0a0;}.cls-5{fill:gray;}</style></defs><path class="cls-1" d="M301,71V331H106V63H69V12H250.35a5,5,0,0,0,2.18.52c9,5.79,20,16.25,30.35,29.47a159.24,159.24,0,0,1,17.54,27.3,5.35,5.35,0,0,0,.57,1.55A.45.45,0,0,0,301,71Z"/><polygon class="cls-2" points="106 242 106 205 72 242 106 242"/><ellipse class="cls-3" cx="66" cy="127.25" rx="55" ry="115.25"/><ellipse class="cls-4" cx="66.41" cy="125.91" rx="25.09" ry="52.23"/><path class="cls-5" d="M147.43,276l-.15.2a1.25,1.25,0,0,0-.18,1.15l.08.24a1.25,1.25,0,0,1-1.59,1.59l-.24-.08a1.25,1.25,0,0,0-1.15.18l-.2.15a1.25,1.25,0,0,1-2-1v-.26a1.21,1.21,0,0,0-.53-1l-.2-.15a1.25,1.25,0,0,1,.34-2.22l.25-.07a1.26,1.26,0,0,0,.82-.83l.07-.24a1.25,1.25,0,0,1,2.22-.35l.15.2a1.22,1.22,0,0,0,1,.53h.25A1.25,1.25,0,0,1,147.43,276Z"/><path class="cls-5" d="M172.43,227l-.15.2a1.25,1.25,0,0,0-.18,1.15l.08.24a1.25,1.25,0,0,1-1.59,1.59l-.24-.08a1.25,1.25,0,0,0-1.15.18l-.2.15a1.25,1.25,0,0,1-2-1v-.26a1.21,1.21,0,0,0-.53-1l-.2-.15a1.25,1.25,0,0,1,.34-2.22l.25-.07a1.26,1.26,0,0,0,.82-.83l.07-.24a1.25,1.25,0,0,1,2.22-.35l.15.2a1.22,1.22,0,0,0,1,.53h.25A1.25,1.25,0,0,1,172.43,227Z"/><path class="cls-5" d="M277.43,221l-.15.2a1.25,1.25,0,0,0-.18,1.15l.08.24a1.25,1.25,0,0,1-1.59,1.59l-.24-.08a1.25,1.25,0,0,0-1.15.18l-.2.15a1.25,1.25,0,0,1-2-1v-.26a1.21,1.21,0,0,0-.53-1l-.2-.15a1.25,1.25,0,0,1,.34-2.22l.25-.07a1.26,1.26,0,0,0,.82-.83l.07-.24a1.25,1.25,0,0,1,2.22-.35l.15.2a1.22,1.22,0,0,0,1,.53h.25A1.25,1.25,0,0,1,277.43,221Z"/><path class="cls-5" d="M246.43,296l-.15.2a1.25,1.25,0,0,0-.18,1.15l.08.24a1.25,1.25,0,0,1-1.59,1.59l-.24-.08a1.25,1.25,0,0,0-1.15.18l-.2.15a1.25,1.25,0,0,1-2-1v-.26a1.21,1.21,0,0,0-.53-1l-.2-.15a1.25,1.25,0,0,1,.34-2.22l.25-.07a1.26,1.26,0,0,0,.82-.83l.07-.24a1.25,1.25,0,0,1,2.22-.35l.15.2a1.22,1.22,0,0,0,1,.53h.25A1.25,1.25,0,0,1,246.43,296Z"/><path class="cls-5" d="M194.43,168l-.15.2a1.25,1.25,0,0,0-.18,1.15l.08.24a1.25,1.25,0,0,1-1.59,1.59l-.24-.08a1.25,1.25,0,0,0-1.15.18l-.2.15a1.25,1.25,0,0,1-2-1v-.26a1.21,1.21,0,0,0-.53-1l-.2-.15a1.25,1.25,0,0,1,.34-2.22l.25-.07a1.26,1.26,0,0,0,.82-.83l.07-.24a1.25,1.25,0,0,1,2.22-.35l.15.2a1.22,1.22,0,0,0,1,.53h.25A1.25,1.25,0,0,1,194.43,168Z"/><path class="cls-5" d="M172.43,286l-.15.2a1.25,1.25,0,0,0-.18,1.15l.08.24a1.25,1.25,0,0,1-1.59,1.59l-.24-.08a1.25,1.25,0,0,0-1.15.18l-.2.15a1.25,1.25,0,0,1-2-1v-.26a1.21,1.21,0,0,0-.53-1l-.2-.15a1.25,1.25,0,0,1,.34-2.22l.25-.07a1.26,1.26,0,0,0,.82-.83l.07-.24a1.25,1.25,0,0,1,2.22-.35l.15.2a1.22,1.22,0,0,0,1,.53h.25A1.25,1.25,0,0,1,172.43,286Z"/><path class="cls-5" d="M216.43,259l-.15.2a1.25,1.25,0,0,0-.18,1.15l.08.24a1.25,1.25,0,0,1-1.59,1.59l-.24-.08a1.25,1.25,0,0,0-1.15.18l-.2.15a1.25,1.25,0,0,1-2-1v-.26a1.21,1.21,0,0,0-.53-1l-.2-.15a1.25,1.25,0,0,1,.34-2.22l.25-.07a1.26,1.26,0,0,0,.82-.83l.07-.24a1.25,1.25,0,0,1,2.22-.35l.15.2a1.22,1.22,0,0,0,1,.53h.25A1.25,1.25,0,0,1,216.43,259Z"/><path class="cls-5" d="M147.43,198l-.15.2a1.25,1.25,0,0,0-.18,1.15l.08.24a1.25,1.25,0,0,1-1.59,1.59l-.24-.08a1.25,1.25,0,0,0-1.15.18l-.2.15a1.25,1.25,0,0,1-2-1v-.26a1.21,1.21,0,0,0-.53-1l-.2-.15a1.25,1.25,0,0,1,.34-2.22l.25-.07a1.26,1.26,0,0,0,.82-.83l.07-.24a1.25,1.25,0,0,1,2.22-.35l.15.2a1.22,1.22,0,0,0,1,.53h.25A1.25,1.25,0,0,1,147.43,198Z"/><path class="cls-5" d="M155.43,177l-.15.2a1.25,1.25,0,0,0-.18,1.15l.08.24a1.25,1.25,0,0,1-1.59,1.59l-.24-.08a1.25,1.25,0,0,0-1.15.18l-.2.15a1.25,1.25,0,0,1-2-1v-.26a1.21,1.21,0,0,0-.53-1l-.2-.15a1.25,1.25,0,0,1,.34-2.22l.25-.07a1.26,1.26,0,0,0,.82-.83l.07-.24a1.25,1.25,0,0,1,2.22-.35l.15.2a1.22,1.22,0,0,0,1,.53h.25A1.25,1.25,0,0,1,155.43,177Z"/><path class="cls-5" d="M180.43,128l-.15.2a1.25,1.25,0,0,0-.18,1.15l.08.24a1.25,1.25,0,0,1-1.59,1.59l-.24-.08a1.25,1.25,0,0,0-1.15.18l-.2.15a1.25,1.25,0,0,1-2-1v-.26a1.21,1.21,0,0,0-.53-1l-.2-.15a1.25,1.25,0,0,1,.34-2.22l.25-.07a1.26,1.26,0,0,0,.82-.83l.07-.24a1.25,1.25,0,0,1,2.22-.35l.15.2a1.22,1.22,0,0,0,1,.53h.25A1.25,1.25,0,0,1,180.43,128Z"/><path class="cls-5" d="M285.43,122l-.15.2a1.25,1.25,0,0,0-.18,1.15l.08.24a1.25,1.25,0,0,1-1.59,1.59l-.24-.08a1.25,1.25,0,0,0-1.15.18l-.2.15a1.25,1.25,0,0,1-2-1v-.26a1.21,1.21,0,0,0-.53-1l-.2-.15a1.25,1.25,0,0,1,.34-2.22l.25-.07a1.26,1.26,0,0,0,.82-.83l.07-.24a1.25,1.25,0,0,1,2.22-.35l.15.2a1.22,1.22,0,0,0,1,.53h.25A1.25,1.25,0,0,1,285.43,122Z"/><path class="cls-5" d="M254.43,197l-.15.2a1.25,1.25,0,0,0-.18,1.15l.08.24a1.25,1.25,0,0,1-1.59,1.59l-.24-.08a1.25,1.25,0,0,0-1.15.18l-.2.15a1.25,1.25,0,0,1-2-1v-.26a1.21,1.21,0,0,0-.53-1l-.2-.15a1.25,1.25,0,0,1,.34-2.22l.25-.07a1.26,1.26,0,0,0,.82-.83l.07-.24a1.25,1.25,0,0,1,2.22-.35l.15.2a1.22,1.22,0,0,0,1,.53h.25A1.25,1.25,0,0,1,254.43,197Z"/><path class="cls-5" d="M202.43,69l-.15.2a1.25,1.25,0,0,0-.18,1.15l.08.24a1.25,1.25,0,0,1-1.59,1.59l-.24-.08a1.25,1.25,0,0,0-1.15.18l-.2.15a1.25,1.25,0,0,1-2-1v-.26a1.21,1.21,0,0,0-.53-1l-.2-.15a1.25,1.25,0,0,1,.34-2.22l.25-.07a1.26,1.26,0,0,0,.82-.83l.07-.24a1.25,1.25,0,0,1,2.22-.35l.15.2a1.22,1.22,0,0,0,1,.53h.25A1.25,1.25,0,0,1,202.43,69Z"/><path class="cls-5" d="M180.43,187l-.15.2a1.25,1.25,0,0,0-.18,1.15l.08.24a1.25,1.25,0,0,1-1.59,1.59l-.24-.08a1.25,1.25,0,0,0-1.15.18l-.2.15a1.25,1.25,0,0,1-2-1v-.26a1.21,1.21,0,0,0-.53-1l-.2-.15a1.25,1.25,0,0,1,.34-2.22l.25-.07a1.26,1.26,0,0,0,.82-.83l.07-.24a1.25,1.25,0,0,1,2.22-.35l.15.2a1.22,1.22,0,0,0,1,.53h.25A1.25,1.25,0,0,1,180.43,187Z"/><path class="cls-5" d="M224.43,160l-.15.2a1.25,1.25,0,0,0-.18,1.15l.08.24a1.25,1.25,0,0,1-1.59,1.59l-.24-.08a1.25,1.25,0,0,0-1.15.18l-.2.15a1.25,1.25,0,0,1-2-1v-.26a1.21,1.21,0,0,0-.53-1l-.2-.15a1.25,1.25,0,0,1,.34-2.22l.25-.07a1.26,1.26,0,0,0,.82-.83l.07-.24a1.25,1.25,0,0,1,2.22-.35l.15.2a1.22,1.22,0,0,0,1,.53h.25A1.25,1.25,0,0,1,224.43,160Z"/><path class="cls-5" d="M155.43,99l-.15.2a1.25,1.25,0,0,0-.18,1.15l.08.24a1.25,1.25,0,0,1-1.59,1.59l-.24-.08a1.25,1.25,0,0,0-1.15.18l-.2.15a1.25,1.25,0,0,1-2-1v-.26a1.21,1.21,0,0,0-.53-1l-.2-.15a1.25,1.25,0,0,1,.34-2.22l.25-.07a1.26,1.26,0,0,0,.82-.83l.07-.24a1.25,1.25,0,0,1,2.22-.35l.15.2a1.22,1.22,0,0,0,1,.53h.25A1.25,1.25,0,0,1,155.43,99Z"/><path class="cls-5" d="M132.43,128l-.15.2a1.25,1.25,0,0,0-.18,1.15l.08.24a1.25,1.25,0,0,1-1.59,1.59l-.24-.08a1.25,1.25,0,0,0-1.15.18l-.2.15a1.25,1.25,0,0,1-2-1v-.26a1.21,1.21,0,0,0-.53-1l-.2-.15a1.25,1.25,0,0,1,.34-2.22l.25-.07a1.26,1.26,0,0,0,.82-.83l.07-.24a1.25,1.25,0,0,1,2.22-.35l.15.2a1.22,1.22,0,0,0,1,.53h.25A1.25,1.25,0,0,1,132.43,128Z"/><path class="cls-5" d="M157.43,79l-.15.2a1.25,1.25,0,0,0-.18,1.15l.08.24a1.25,1.25,0,0,1-1.59,1.59l-.24-.08a1.25,1.25,0,0,0-1.15.18l-.2.15a1.25,1.25,0,0,1-2-1v-.26a1.21,1.21,0,0,0-.53-1l-.2-.15a1.25,1.25,0,0,1,.34-2.22l.25-.07a1.26,1.26,0,0,0,.82-.83l.07-.24a1.25,1.25,0,0,1,2.22-.35l.15.2a1.22,1.22,0,0,0,1,.53h.25A1.25,1.25,0,0,1,157.43,79Z"/><path class="cls-5" d="M262.43,73l-.15.2a1.25,1.25,0,0,0-.18,1.15l.08.24a1.25,1.25,0,0,1-1.59,1.59l-.24-.08a1.25,1.25,0,0,0-1.15.18l-.2.15a1.25,1.25,0,0,1-2-1v-.26a1.21,1.21,0,0,0-.53-1l-.2-.15a1.25,1.25,0,0,1,.34-2.22l.25-.07a1.26,1.26,0,0,0,.82-.83l.07-.24a1.25,1.25,0,0,1,2.22-.35l.15.2a1.22,1.22,0,0,0,1,.53h.25A1.25,1.25,0,0,1,262.43,73Z"/><path class="cls-5" d="M231.43,148l-.15.2a1.25,1.25,0,0,0-.18,1.15l.08.24a1.25,1.25,0,0,1-1.59,1.59l-.24-.08a1.25,1.25,0,0,0-1.15.18l-.2.15a1.25,1.25,0,0,1-2-1v-.26a1.21,1.21,0,0,0-.53-1l-.2-.15a1.25,1.25,0,0,1,.34-2.22l.25-.07a1.26,1.26,0,0,0,.82-.83l.07-.24a1.25,1.25,0,0,1,2.22-.35l.15.2a1.22,1.22,0,0,0,1,.53h.25A1.25,1.25,0,0,1,231.43,148Z"/><path class="cls-5" d="M179.43,20l-.15.2a1.25,1.25,0,0,0-.18,1.15l.08.24a1.25,1.25,0,0,1-1.59,1.59l-.24-.08a1.25,1.25,0,0,0-1.15.18l-.2.15a1.25,1.25,0,0,1-2-1v-.26a1.21,1.21,0,0,0-.53-1l-.2-.15a1.25,1.25,0,0,1,.34-2.22l.25-.07a1.26,1.26,0,0,0,.82-.83l.07-.24a1.25,1.25,0,0,1,2.22-.35l.15.2a1.22,1.22,0,0,0,1,.53h.25A1.25,1.25,0,0,1,179.43,20Z"/><path class="cls-5" d="M157.43,138l-.15.2a1.25,1.25,0,0,0-.18,1.15l.08.24a1.25,1.25,0,0,1-1.59,1.59l-.24-.08a1.25,1.25,0,0,0-1.15.18l-.2.15a1.25,1.25,0,0,1-2-1v-.26a1.21,1.21,0,0,0-.53-1l-.2-.15a1.25,1.25,0,0,1,.34-2.22l.25-.07a1.26,1.26,0,0,0,.82-.83l.07-.24a1.25,1.25,0,0,1,2.22-.35l.15.2a1.22,1.22,0,0,0,1,.53h.25A1.25,1.25,0,0,1,157.43,138Z"/><path class="cls-5" d="M201.43,111l-.15.2a1.25,1.25,0,0,0-.18,1.15l.08.24a1.25,1.25,0,0,1-1.59,1.59l-.24-.08a1.25,1.25,0,0,0-1.15.18l-.2.15a1.25,1.25,0,0,1-2-1v-.26a1.21,1.21,0,0,0-.53-1l-.2-.15a1.25,1.25,0,0,1,.34-2.22l.25-.07a1.26,1.26,0,0,0,.82-.83l.07-.24a1.25,1.25,0,0,1,2.22-.35l.15.2a1.22,1.22,0,0,0,1,.53h.25A1.25,1.25,0,0,1,201.43,111Z"/><path class="cls-5" d="M132.43,50l-.15.2a1.25,1.25,0,0,0-.18,1.15l.08.24a1.25,1.25,0,0,1-1.59,1.59l-.24-.08a1.25,1.25,0,0,0-1.15.18l-.2.15a1.25,1.25,0,0,1-2-1v-.26a1.21,1.21,0,0,0-.53-1l-.2-.15a1.25,1.25,0,0,1,.34-2.22l.25-.07a1.26,1.26,0,0,0,.82-.83l.07-.24a1.25,1.25,0,0,1,2.22-.35l.15.2a1.22,1.22,0,0,0,1,.53h.25A1.25,1.25,0,0,1,132.43,50Z"/></svg>