<svg id="Layer_1" data-name="Layer 1" xmlns="http://www.w3.org/2000/svg" viewBox="0 0 197.5 363"><defs><style>.cls-1{fill:#ad7a4a;}.cls-2{fill:#dc8f53;}.cls-3{fill:#bd7700;}</style></defs><path class="cls-1" d="M186.92,21.59c-.06,4.47-4.35,8-8,9-4.54,1.28-8.29-1.21-9,0l-149,1c-8.05-2.87-9-4-9-4-3.11-3.89-1.71-9.09,0-12a11.7,11.7,0,0,1,6-5c3.76-1.3,6.66.12,11,1,3.85.78,5.53.46,15,0,14.31-.69,31.9-1,40-1,16.08,0,12.65.95,31,1s21.48-.94,34,0c9.85.74,11.72,1.64,18,1,5.75-.59,8.94-1.83,13,0C182.81,13.89,187,17.13,186.92,21.59Z"/><path class="cls-1" d="M186.92,345.59c-1.75,3.15-5.06,4.4-7,5-12.93,4-35.66,1.17-37,1-13.89-1.73-28,0-42,0-35.87-.08-35.93-.09-37,0-12.3,1-24.77-.62-37,1-2.35.31-7.75,1.15-12-2-3.93-2.91-6.75-8.58-5-13,1.42-3.6,5.46-5.34,7-6,3.91-1.68,5.81-.67,7-2l5,0,7.08.05,9.12.06,17.76.12,9.68.07,6.76.05,2.8,0,4.55,0h4l3.21,0h2.73l2.79,0,2.63,0,2.36,0h1l3.57,0h1.19l3.58,0,3.82,0,4.73,0,12.81.09,3.09,0h2.47l1.92,0,3.32,0,3,0h.06l2.77,0h.87l6.38,0h.79l2,0,9.24.06c.63,1.35,3.53.3,9,2,3.07,1,5.52,1.71,7,4C188.69,339.31,188.33,343,186.92,345.59Z"/><path class="cls-2" d="M180.92,297.59c.84,16.81-.32,20.27-2,23-3.39,5.52-8.89,8.1-8,10l-9.24-.06-2,0h-.79l-6.38,0h-.87l-2.77,0h-.06l-3,0-3.32,0-1.92,0h-2.47l-3.09,0-12.81-.09-4.73,0-3.82,0-3.58,0H108.9l-3.57,0h-1l-2.36,0-2.63,0-2.79,0H93.8l-3.21,0h-4l-4.55,0-2.8,0-6.76-.05-9.68-.07-17.76-.12L36,329.67l-7.08-.05-5,0c2.48-2.78-3.11-10.19-6-17-7.09-16.68-.13-34.84,3-43,4.37-11.4,10.5-18.63,16-25,7.58-8.78,10.68-9.6,34-29,16.33-13.59,21.45-18.71,23-27,1.38-7.38-.77-13.57-2-17-4.59-12.76-13.75-18.38-27-29-18.6-14.9-28.76-23-37-36a84.54,84.54,0,0,1-13-39,81.3,81.3,0,0,1,6-36l149-1c-.6,1,2.08,2.87,5,7,4.11,5.82,6.14,12.58,6.14,14.49,0,.29-.05.46-.14.51,3.28,10.31,1.47,19.49,0,27a79.94,79.94,0,0,1-11,27c-10.14,16.32-23.09,26.6-39,39-14.75,11.5-23.76,16.3-27,28a28,28,0,0,0,0,16c1.11,3.45,3,6.59,14,17,4.67,4.41,8.43,7.72,18,16,11.87,10.27,13.4,11.5,17,15,5.43,5.29,9,8.72,13,14,4.27,5.58,9.94,13,13,24C180,279.52,180.31,285.54,180.92,297.59Z"/><path class="cls-3" d="M145.83,330.42l-3.32,0Z"/></svg>