<svg id="Layer_1" data-name="Layer 1" xmlns="http://www.w3.org/2000/svg" width="278" height="107" viewBox="0 0 278 107"><defs><style>.cls-1{fill:#fff;}</style></defs><rect x="8.5" y="5.5" width="261" height="96" rx="25.32"/><path class="cls-1" d="M262.5,25.5c-.89,2-4,2-16-3s-33-.79-33-3,10.52-4,23.5-4C254.68,15.45,263.48,23.28,262.5,25.5Z"/><path class="cls-1" d="M258.5,64.5c-1.22-.48-3.71,1.58-1-5.68s-.34-19.65,1-19.71,2.61,6.16,2.95,13.88C261.87,63.51,259.84,65,258.5,64.5Z"/><path class="cls-1" d="M55.15,56.16a14.32,14.32,0,0,0,1.93.46A14.77,14.77,0,0,0,59,57a17.39,17.39,0,0,0,2.16.13c1.29,0,1.94-.48,1.94-1.43a1.61,1.61,0,0,0-.59-1.11A16.93,16.93,0,0,0,61,53.28c-.6-.46-1.25-1-1.93-1.53a14.22,14.22,0,0,1-1.94-1.94,9.9,9.9,0,0,1-1.49-2.45,7.91,7.91,0,0,1-.59-3.13,8,8,0,0,1,.72-3.49,6.9,6.9,0,0,1,2-2.52,8.94,8.94,0,0,1,3-1.53,12.32,12.32,0,0,1,3.64-.52,19.32,19.32,0,0,1,2,.1l1.81.19,1.8.25v7.85l-.75-.08-.76-.08a8.18,8.18,0,0,0-.88,0l-.63,0a3.2,3.2,0,0,0-.71.1,1.48,1.48,0,0,0-.59.29.74.74,0,0,0-.25.59c0,.23.19.51.56.84s.84.73,1.39,1.18,1.15,1,1.81,1.55A12.53,12.53,0,0,1,71,51a11.59,11.59,0,0,1,1.39,2.56,8.55,8.55,0,0,1,.56,3.19,10.15,10.15,0,0,1-.58,3.47A7.4,7.4,0,0,1,70.5,63a8.69,8.69,0,0,1-3.17,1.89,13.67,13.67,0,0,1-4.58.69,27.35,27.35,0,0,1-3-.14c-.91-.1-1.72-.22-2.42-.36a21.68,21.68,0,0,1-2.22-.5Zm3.53,5q.59.12,1.26.21l1.24.14a11.43,11.43,0,0,0,1.32.07,9.21,9.21,0,0,0,2.29-.28,5.72,5.72,0,0,0,2-.9,4.6,4.6,0,0,0,1.41-1.62,5.05,5.05,0,0,0,.52-2.41,4.74,4.74,0,0,0-.6-2.31A10.77,10.77,0,0,0,66.55,52a26.25,26.25,0,0,0-2-1.93c-.72-.62-1.39-1.24-2-1.87A11.21,11.21,0,0,1,61,46.31a3.53,3.53,0,0,1-.61-2,2.91,2.91,0,0,1,1-2.33,4.82,4.82,0,0,1,3.11-.82l.69,0c.24,0,.47,0,.7.06a4.92,4.92,0,0,0,.67,0V40.24c-.2,0-.41,0-.63,0l-.65-.07-.74,0a6.42,6.42,0,0,0-3.74,1,3.66,3.66,0,0,0-1.47,3.21,4.33,4.33,0,0,0,.61,2.21,11.31,11.31,0,0,0,1.56,2c.63.65,1.3,1.29,2,1.91s1.39,1.24,2,1.87a10.12,10.12,0,0,1,1.55,2,4,4,0,0,1,.61,2.1,3.61,3.61,0,0,1-1.36,3.06,6,6,0,0,1-3.76,1.05,14.08,14.08,0,0,1-2.61-.21,11.29,11.29,0,0,1-1.21-.21Z"/><path class="cls-1" d="M96.6,47.5a10.93,10.93,0,0,1-1,4.94,8.8,8.8,0,0,1-2.75,3.3,11.75,11.75,0,0,1-4.07,1.84,20.09,20.09,0,0,1-5,.59v6.68h-9v-28h9a20.57,20.57,0,0,1,5,.58,12,12,0,0,1,4.07,1.85,8.8,8.8,0,0,1,2.75,3.3A10.92,10.92,0,0,1,96.6,47.5Zm-4.07,0a7.66,7.66,0,0,0-.65-3.27A6,6,0,0,0,90.05,42a8.1,8.1,0,0,0-2.79-1.32,13.08,13.08,0,0,0-3.51-.44H79V61.49h1.1V54.81h3.65a13.08,13.08,0,0,0,3.51-.44,8.1,8.1,0,0,0,2.79-1.32,6.09,6.09,0,0,0,1.83-2.27A7.71,7.71,0,0,0,92.53,47.5Zm-1.18,0a6.54,6.54,0,0,1-.63,3A5.18,5.18,0,0,1,89,52.46a7,7,0,0,1-2.41,1,12.78,12.78,0,0,1-2.88.31H80.1V41.2h3.65a12.77,12.77,0,0,1,2.88.32,7,7,0,0,1,2.41,1,5.18,5.18,0,0,1,1.68,1.93A6.52,6.52,0,0,1,91.35,47.5Zm-7.6,3.11h.38a3.37,3.37,0,0,0,2.54-.82,3.74,3.74,0,0,0,0-4.57,3.37,3.37,0,0,0-2.54-.82h-.38Z"/><path class="cls-1" d="M98.7,36.84h9.49v28H98.7ZM104,61.49V40.2H102.9V61.49Z"/><path class="cls-1" d="M111.13,36.84h9.33V57.5h7.73v7.35H111.13Zm14.7,24.65v-1h-9.4V40.2h-1.1V61.49Z"/><path class="cls-1" d="M138.06,36.84h9.49v28h-9.49Zm5.29,24.65V40.2h-1.1V61.49Z"/><path class="cls-1" d="M168.34,46.37a5.21,5.21,0,0,0-1.89-1,7.37,7.37,0,0,0-2.23-.36,5.45,5.45,0,0,0-2.23.45,5.34,5.34,0,0,0-1.74,1.21,5.71,5.71,0,0,0-1.15,1.87,6.49,6.49,0,0,0-.42,2.35,6,6,0,0,0,.46,2.36,5.71,5.71,0,0,0,1.26,1.87,6,6,0,0,0,4.16,1.65,5.62,5.62,0,0,0,2.6-.6,6.33,6.33,0,0,0,2-1.66h-2.52V48.6h10.79v9.32a15.17,15.17,0,0,1-2.31,3.13,14.76,14.76,0,0,1-3,2.41A14.21,14.21,0,0,1,168.55,65a14.77,14.77,0,0,1-4,.54,14.52,14.52,0,0,1-5.72-1.13,14.73,14.73,0,0,1-4.68-3.11,14.57,14.57,0,0,1-4.3-10.46A15,15,0,0,1,151,45.15a14.78,14.78,0,0,1,3-4.68,14.12,14.12,0,0,1,4.54-3.15,13.86,13.86,0,0,1,5.65-1.15,15.79,15.79,0,0,1,4.07.46,15.26,15.26,0,0,1,2.9,1,10.56,10.56,0,0,1,2.31,1.47Zm.42-5.42a6.71,6.71,0,0,0-1.22-.42,11.55,11.55,0,0,0-1.39-.29,10.61,10.61,0,0,0-1.76-.13,10.82,10.82,0,0,0-4.16.8,10.28,10.28,0,0,0-3.36,2.21,10.11,10.11,0,0,0-2.25,3.38,11.36,11.36,0,0,0-.82,4.36,11,11,0,0,0,.84,4.37A10,10,0,0,0,157,58.61a10.81,10.81,0,0,0,3.43,2.21,11,11,0,0,0,4.18.8,10.28,10.28,0,0,0,5.25-1.37,11.25,11.25,0,0,0,3.82-3.63v-5.5h-4.45v1h3.36v4.2a9.59,9.59,0,0,1-3.38,3.07,9.41,9.41,0,0,1-4.6,1.13,10.1,10.1,0,0,1-3.76-.69,9.15,9.15,0,0,1-5.15-5,10,10,0,0,1-.75-3.93,10.21,10.21,0,0,1,.73-3.92,9.27,9.27,0,0,1,2-3.07,8.84,8.84,0,0,1,3-2,10,10,0,0,1,3.74-.7,8.17,8.17,0,0,1,1.43.13l1.17.25c.39.11.76.23,1.09.34Z"/><path class="cls-1" d="M179.76,36.84h16.51v7.35h-7.56v3.1h7.43v7h-7.43V57.5h7.85v7.35h-16.8Zm13.69,24.65v-1h-8.4v-9.2h8v-1h-8V41.2h8.4v-1H184V61.49Z"/><path class="cls-1" d="M199.08,36.84h7.35l7.73,10.79V36.84h8.78v28h-7.4L207.86,54.1V64.85h-8.78Zm5,24.65V42.09l13.86,19.4H219V40.2h-1.09V59.6L204.08,40.2H203V61.49Z"/></svg>