<svg id="Layer_1" data-name="Layer 1" xmlns="http://www.w3.org/2000/svg" width="278" height="107" viewBox="0 0 278 107"><defs><style>.cls-1{fill:#fff;}</style></defs><g id="Start"><rect x="8.5" y="5.5" width="261" height="96" rx="25.32"/><path class="cls-1" d="M262.5,25.5c-.89,2-4,2-16-3s-33-.79-33-3,10.52-4,23.5-4C254.68,15.45,263.48,23.28,262.5,25.5Z"/><path class="cls-1" d="M258.5,64.5c-1.22-.48-3.71,1.58-1-5.68s-.34-19.65,1-19.71,2.61,6.16,2.95,13.88C261.87,63.51,259.84,65,258.5,64.5Z"/><path class="cls-1" d="M44.33,56.16a14.69,14.69,0,0,0,1.93.46,14.77,14.77,0,0,0,1.91.33,17.44,17.44,0,0,0,2.17.13c1.28,0,1.93-.48,1.93-1.43a1.61,1.61,0,0,0-.59-1.11,16.93,16.93,0,0,0-1.49-1.26c-.6-.46-1.25-1-1.93-1.53a13.62,13.62,0,0,1-1.93-1.94,9.93,9.93,0,0,1-1.5-2.45,7.91,7.91,0,0,1-.58-3.13A8,8,0,0,1,45,40.74a7,7,0,0,1,2-2.52,8.84,8.84,0,0,1,3-1.53,12.21,12.21,0,0,1,3.63-.52,19.65,19.65,0,0,1,2,.1l1.8.19,1.81.25v7.85l-.76-.08-.75-.08a8.53,8.53,0,0,0-.89,0l-.63,0a3.2,3.2,0,0,0-.71.1,1.48,1.48,0,0,0-.59.29.74.74,0,0,0-.25.59q0,.35.57.84c.37.34.84.73,1.38,1.18s1.15,1,1.81,1.55a12.07,12.07,0,0,1,1.8,2,11.59,11.59,0,0,1,1.39,2.56,8.55,8.55,0,0,1,.57,3.19,10.16,10.16,0,0,1-.59,3.47A7.29,7.29,0,0,1,59.68,63a8.6,8.6,0,0,1-3.17,1.89,13.63,13.63,0,0,1-4.58.69,27.35,27.35,0,0,1-3-.14c-.91-.1-1.71-.22-2.41-.36a21.31,21.31,0,0,1-2.23-.5Zm3.53,5q.59.12,1.26.21l1.24.14a11.43,11.43,0,0,0,1.32.07A9.21,9.21,0,0,0,54,61.34a5.77,5.77,0,0,0,2-.9,4.68,4.68,0,0,0,1.4-1.62,5.05,5.05,0,0,0,.53-2.41,4.75,4.75,0,0,0-.61-2.31A10.77,10.77,0,0,0,55.73,52a26.25,26.25,0,0,0-2-1.93c-.72-.62-1.39-1.24-2-1.87a11.21,11.21,0,0,1-1.55-1.89,3.53,3.53,0,0,1-.61-2,2.89,2.89,0,0,1,1-2.33,4.79,4.79,0,0,1,3.1-.82l.7,0,.69.06a5,5,0,0,0,.67,0V40.24c-.19,0-.4,0-.63,0l-.65-.07-.73,0a6.4,6.4,0,0,0-3.74,1,3.66,3.66,0,0,0-1.47,3.21,4.23,4.23,0,0,0,.61,2.21,10.79,10.79,0,0,0,1.55,2c.63.65,1.3,1.29,2,1.91s1.38,1.24,2,1.87a10.59,10.59,0,0,1,1.56,2,4.05,4.05,0,0,1,.61,2.1,3.62,3.62,0,0,1-1.37,3.06,6,6,0,0,1-3.76,1.05,13.9,13.9,0,0,1-2.6-.21,11.48,11.48,0,0,1-1.22-.21Z"/><path class="cls-1" d="M67.68,44.19H62.52V36.84H82.09v7.35H76.92V64.85H67.68Zm5.17,17.3V41.2h6v-1H65.75v1h6V61.49Z"/><path class="cls-1" d="M91.87,36.84h6.72l10.63,28H100.4l-.92-2.52H91l-.92,2.52H81.25ZM87.51,61.49l.79-2.1h13.86l.8,2.1h1.18L96,40.2H94.44L86.33,61.49ZM95.23,41.2l6.56,17.18H88.68Zm1.89,15-1.89-4.92-1.89,4.92Z"/><path class="cls-1" d="M109.85,36.84h9.66a16.88,16.88,0,0,1,5,.71,11.77,11.77,0,0,1,4,2.1,9.63,9.63,0,0,1,2.62,3.42,11,11,0,0,1,.95,4.69,9.66,9.66,0,0,1-.59,3.57,11,11,0,0,1-1.3,2.43,8.94,8.94,0,0,1-1.89,1.85l5.25,9.24H123l-4.2-7.1v7.1h-9Zm8.74,18.27a14.7,14.7,0,0,0,3.19-.34l4,6.72h1.3l-4.2-7.06A7.89,7.89,0,0,0,126.48,52a6.61,6.61,0,0,0,1.35-4.31,6.9,6.9,0,0,0-.72-3.23,6.76,6.76,0,0,0-2-2.33,8.75,8.75,0,0,0-2.92-1.43,13.26,13.26,0,0,0-3.65-.48h-4.54V61.49h1.09V55.11Zm-3.45-1V41.2h3.45a9.53,9.53,0,0,1,6,1.68,5.72,5.72,0,0,1,2.16,4.79,5.65,5.65,0,0,1-2.16,4.77,9.59,9.59,0,0,1-6,1.66Zm3.66-3.49h.46A4.89,4.89,0,0,0,122,49.9a2.64,2.64,0,0,0,1.11-2.4A2.62,2.62,0,0,0,122,45.11a4.89,4.89,0,0,0-2.71-.71h-.46Z"/><path class="cls-1" d="M138,44.19h-5.16V36.84h19.57v7.35h-5.17V64.85H138Zm5.17,17.3V41.2h6v-1H136.1v1h6V61.49Z"/><path class="cls-1" d="M161.55,56.16a31.19,31.19,0,0,0,3.84.79,17.44,17.44,0,0,0,2.17.13c1.28,0,1.93-.48,1.93-1.43a1.61,1.61,0,0,0-.59-1.11,16.93,16.93,0,0,0-1.49-1.26c-.6-.46-1.25-1-1.93-1.53a13.62,13.62,0,0,1-1.93-1.94,9.61,9.61,0,0,1-1.49-2.45,7.73,7.73,0,0,1-.59-3.13,8.18,8.18,0,0,1,.71-3.49,7,7,0,0,1,2-2.52,8.84,8.84,0,0,1,3-1.53,12.21,12.21,0,0,1,3.63-.52,19.65,19.65,0,0,1,2,.1l1.8.19,1.81.25v7.85l-.76-.08-.75-.08a8.53,8.53,0,0,0-.89,0l-.63,0a3.2,3.2,0,0,0-.71.1,1.55,1.55,0,0,0-.59.29.74.74,0,0,0-.25.59q0,.35.57.84c.37.34.84.73,1.38,1.18s1.15,1,1.81,1.55a12.07,12.07,0,0,1,1.8,2,11.59,11.59,0,0,1,1.39,2.56,8.55,8.55,0,0,1,.57,3.19,10.16,10.16,0,0,1-.59,3.47A7.29,7.29,0,0,1,176.9,63a8.6,8.6,0,0,1-3.17,1.89,13.63,13.63,0,0,1-4.58.69,27.35,27.35,0,0,1-3-.14c-.91-.1-1.71-.22-2.41-.36a21.31,21.31,0,0,1-2.23-.5Zm3.53,5q.58.12,1.26.21l1.24.14a11.43,11.43,0,0,0,1.32.07,9.15,9.15,0,0,0,2.29-.28,5.77,5.77,0,0,0,2-.9,4.68,4.68,0,0,0,1.4-1.62,5.05,5.05,0,0,0,.53-2.41,4.75,4.75,0,0,0-.61-2.31A10.77,10.77,0,0,0,173,52a26.25,26.25,0,0,0-2-1.93c-.72-.62-1.39-1.24-2-1.87a11.21,11.21,0,0,1-1.55-1.89,3.53,3.53,0,0,1-.61-2,2.89,2.89,0,0,1,1-2.33,4.79,4.79,0,0,1,3.1-.82l.7,0c.23,0,.47,0,.69.06a5,5,0,0,0,.67,0V40.24c-.19,0-.4,0-.63,0l-.65-.07-.73,0a6.4,6.4,0,0,0-3.74,1,3.66,3.66,0,0,0-1.47,3.21,4.23,4.23,0,0,0,.61,2.21,10.79,10.79,0,0,0,1.55,2c.63.65,1.3,1.29,2,1.91s1.38,1.24,2,1.87a10.59,10.59,0,0,1,1.56,2,4.05,4.05,0,0,1,.61,2.1,3.62,3.62,0,0,1-1.37,3.06,6,6,0,0,1-3.76,1.05,13.9,13.9,0,0,1-2.6-.21,11.48,11.48,0,0,1-1.22-.21Z"/><path class="cls-1" d="M203,47.5a11.07,11.07,0,0,1-1,4.94,8.8,8.8,0,0,1-2.75,3.3,11.8,11.8,0,0,1-4.08,1.84,20.09,20.09,0,0,1-5,.59v6.68h-8.94v-28h8.94a20.57,20.57,0,0,1,5,.58,12,12,0,0,1,4.08,1.85,8.8,8.8,0,0,1,2.75,3.3A11.05,11.05,0,0,1,203,47.5Zm-4.08,0a7.66,7.66,0,0,0-.65-3.27A5.83,5.83,0,0,0,196.45,42a8,8,0,0,0-2.79-1.32,13.08,13.08,0,0,0-3.51-.44h-4.74V61.49h1.09V54.81h3.65a13.08,13.08,0,0,0,3.51-.44,8,8,0,0,0,2.79-1.32,5.91,5.91,0,0,0,1.83-2.27A7.71,7.71,0,0,0,198.93,47.5Zm-1.17,0a6.54,6.54,0,0,1-.63,3,5.18,5.18,0,0,1-1.68,1.93,7,7,0,0,1-2.42,1,12.78,12.78,0,0,1-2.88.31H186.5V41.2h3.65a12.77,12.77,0,0,1,2.88.32,7,7,0,0,1,2.42,1,5.18,5.18,0,0,1,1.68,1.93A6.52,6.52,0,0,1,197.76,47.5Zm-7.61,3.11h.38a3.36,3.36,0,0,0,2.54-.82,3.74,3.74,0,0,0,0-4.57,3.36,3.36,0,0,0-2.54-.82h-.38Z"/><path class="cls-1" d="M205.1,36.84h9.5v28h-9.5Zm5.3,24.65V40.2h-1.1V61.49Z"/><path class="cls-1" d="M217.54,36.84h9.32V57.5h7.73v7.35H217.54Zm14.7,24.65v-1h-9.41V40.2h-1.09V61.49Z"/></g></svg>