<svg id="Layer_1" data-name="Layer 1" xmlns="http://www.w3.org/2000/svg" viewBox="0 0 324 384"><defs><style>.cls-1{fill:#fbfbfb;}.cls-2{fill:#dfdfdf;}.cls-3{fill:#e7e7e7;}.cls-4{fill:#a2a2a2;}</style></defs><path class="cls-1" d="M301,70.84a5.35,5.35,0,0,1-.57-1.55A159.24,159.24,0,0,0,282.88,42c-10.38-13.22-21.4-23.68-30.35-29.47a5,5,0,0,1-2.18-.52H106V331H301V71A.45.45,0,0,1,301,70.84Z"/><rect class="cls-1" x="69" y="12" width="78" height="51"/><polygon class="cls-2" points="106 242 106 205 72 242 106 242"/><ellipse class="cls-3" cx="66" cy="127.25" rx="55" ry="115.25"/><ellipse class="cls-4" cx="66.41" cy="125.91" rx="25.09" ry="52.23"/><polygon class="cls-1" points="106 331 106 373.6 134.3 331 166.99 373.6 195.53 331 229.5 371.5 263.66 331 298.5 366.5 301 331 106 331"/></svg>